<?xml version="1.0" encoding="utf-8"?>
<!-- Generator: Adobe Illustrator 16.0.0, SVG Export Plug-In . SVG Version: 6.00 Build 0)  -->
<!DOCTYPE svg PUBLIC "-//W3C//DTD SVG 1.1//EN" "http://www.w3.org/Graphics/SVG/1.1/DTD/svg11.dtd">
<svg version="1.1" id="Ebene_1" xmlns="http://www.w3.org/2000/svg" xmlns:xlink="http://www.w3.org/1999/xlink" x="0px" y="0px"
	 width="400px" height="400px" viewBox="0 0 400 400" enable-background="new 0 0 400 400" xml:space="preserve">
<g id="Gate_17_1_">
	<path fill="#FFFFFF" d="M200,45c41.4,0,80.325,16.123,109.602,45.398C338.877,119.675,355,158.599,355,200
		c0,41.402-16.123,80.326-45.398,109.602C280.325,338.877,241.4,355,200,355c-41.402,0-80.326-16.123-109.602-45.398
		C61.122,280.327,45,241.402,45,200c0-41.401,16.123-80.325,45.398-109.602C119.674,61.123,158.598,45,200,45 M200,25
		c-96.65,0-175,78.352-175,175c0,96.65,78.35,175,175,175c96.648,0,175-78.35,175-175C375,103.352,296.648,25,200,25L200,25z"/>
	<circle fill="#36A9E1" cx="200" cy="200.5" r="165"/>
	<g>
		<g>
			<defs>
				<circle id="SVGID_1_" cx="200" cy="200.5" r="165"/>
			</defs>
			<clipPath id="SVGID_2_">
				<use xlink:href="#SVGID_1_"  overflow="visible"/>
			</clipPath>
			<g clip-path="url(#SVGID_2_)">
				<path fill="#FFFFFF" d="M159.086,459.164c-1.767-6.777-4.587-21.404-10.234-26.135c-8.726-7.31-18.828-1.476-18.111,8.761
					c0.295,4.221,2.041,11.249-6.076,9.96"/>
				<path fill="#FFFFFF" d="M176.595,425.97c-2.425-8.976-3.159-13.833-3.524-22.102c-10.256-0.67-15.551,6.088-13.84,16.792
					c0.876,5.488,5.485,9.44,11.708,8.674c0.646-3.406,0.574-7.112,1.493-10.305L176.595,425.97z"/>
				<path fill="#FFFFFF" d="M127.323,428.746c-3.936,0.333-7.681,1.292-11.238,2.875c4.399,5.168,12.314,1.254,10.555-4.958
					c-1.802-6.361-9.786-5.312-9.727,1.387"/>
				<path fill="#FFFFFF" d="M148.836,398.905c0.347-7.259,0.899-15.287,0.709-22.796c-4.425-0.247-10.846-1.462-13.754,1.772
					c-1.893,2.105-0.873,7.287-2.225,9.915c-3.782,7.344-14.243,6.269-13.199,16.66c0.642,6.382,8.557,11.795,15.438,11.12
					c4.918-0.482,11.157-6.384,10.949-11.814L148.836,398.905z"/>
				<path fill="#FFFFFF" d="M130.099,371.839c4.98-3.296,10.537-25.955,0.139-22.065c-3.84,1.436-8.211,21.457-7.668,25.431
					c1.177,0.12,2.874,0.394,4.06,0.104L130.099,371.839z"/>
				<path fill="#FFFFFF" d="M161.327,349.632c4.257-5.499,9.864-22.648,4.891-29.35c-2.435-3.282-8.647-6.07-12.509-6.042
					c-7.302,0.052-5.514,2.693-6.246,8.867c-0.952,8.033-3.007,13.596-5.719,20.975c-3.607,9.812,4.318,12.034,13.908,12.367
					c0.205-1.129,1.266-1.986,1.512-2.652L161.327,349.632z"/>
				<path fill="#FFFFFF" d="M187.698,310.076c-4.773,3.96-8,1.662-7.634,9.021c0.315,6.341,2.812,7.668,9.055,8.328
					c10.259,1.084,12.941-12.528,4.131-15.268L187.698,310.076z"/>
				<path fill="#FFFFFF" d="M230.725,246.924c-19.506-4.669-21.636,21.874-7.808,20.682c3.479-0.301,6.412-3.75,9.194-4.752
					c2.105-0.76,6.111,0.06,7.84-1.844c5.07-5.58-0.963-11.13-6.45-11.31L230.725,246.924z"/>
				<path fill="#FFFFFF" d="M232.113,231.657c14.613-0.543,18.768-17.407,6.769-24.136c-11.182-6.27-23.684-1.765-32.29,6.109
					c-19.158,17.529,5.869,25.333,21.356,19.414L232.113,231.657z"/>
				<path fill="#FFFFFF" d="M185.617,229.575c-4.142,2.237-5.977,8.321-0.191,9.905c5.894,1.614,7.603-5.863,2.272-8.519
					L185.617,229.575z"/>
				<path fill="#FFFFFF" d="M259.177,174.752c-2.806,5.853-18.442,12.881-9.524,22.034c5.763,5.914,26.9,5.606,33.813,2.269
					c7.505-3.624,12.806-16.069,6.435-22.758c-4.617-4.849-16.217-3.626-23.09-3.626L259.177,174.752z"/>
				<path fill="#FFFFFF" d="M323.717,151.851c-2.593,2.548-4.74,8.221-6.957,11.64c-1.71,2.64-4.852,6.179-6.035,9.35
					c-5.027,13.443,13.086,9.161,20.571,6.093c7.211-2.956,22.867-2.874,20.179-13.897c-1.416-5.808-13.914-10.005-20.125-11.797
					L323.717,151.851z"/>
				<path fill="#FFFFFF" d="M300.122,150.463c-4.424,1.872-10.222-1.197-13.724,2.898c-3.506,4.103-1.769,9.377,2.113,11.537
					c7.115,3.958,15.795-2.935,15.08-10.272L300.122,150.463z"/>
				<path fill="#FFFFFF" d="M348.7,136.584c-2.247-3.585-16.929-3.998-15.285,4.874c0.93,5.018,9.14,6.452,13.341,7.772
					c4.725,1.484,13.307,4.948,14.434-1.542c0.99-5.709-4.274-5.438-6.938-9.022L348.7,136.584z"/>
				<path fill="#FFFFFF" d="M372.989,132.42c-6.165-0.641-11.759,4.784-5.062,9.209c4.875,3.222,10.701-1.7,7.839-6.434
					L372.989,132.42z"/>
				<path fill="#FFFFFF" d="M391.032,123.398c-1.737,1.478-3.88,2.473-6.173,2.914c-0.434,11.002,2.961,18.374,6.712,28.347
					c5.141,13.669,15.332,6.67,23.21-0.933c6.772-6.536,21.618-25.408,9.523-31.02c-6.627-3.076-22.06-4.662-29.111-2.085
					L391.032,123.398z"/>
				<path fill="#FFFFFF" d="M457.654,141.441c4.783-0.174,25.381-8.147,19.273-15.246c-4.521-5.255-21.127-1.818-27.654-2.797
					c-6.206-0.932-18.206-1.454-15.209,9.713c1.729,6.445,13.823,6.202,19.426,9.718L457.654,141.441z"/>
				<path fill="#FFFFFF" d="M478.473,142.83c-6.957-0.099-14.687,8.026-5.566,11.119c8.04,2.729,17.209-8.003,9.038-9.038
					L478.473,142.83z"/>
				<path fill="#FFFFFF" d="M210.6,292.033c0.688,0.762,1.185,0.783,1.491,0.064c-0.25-5.998,0.796-11.455-2.34-16.736
					c-1.726-2.906-4.479-4.719-6.053-7.807c-1.403-2.75-0.782-6.015-2.121-8.832c-1.71-3.599-7.086-5.771-11.671-7.375
					c-15.826-5.537-26.056,11.947-31.375,24.744c-2.651,6.378-7.971,15.796-2.599,19.583c2.21,1.558,6.335,1.423,8.864,2.744
					c3.569,1.863,4.652,3.938,9.022,4.719c5.836,1.044,12.954,0.544,18.042-0.848c3.611-0.987,15.833-2.091,18.044-4.703
					L210.6,292.033z"/>
				<path fill="#FFFFFF" d="M125.292,446.136c1.435-2.557,0.883-7.241,0.416-10.135c-0.579-3.576-3.172-7.797-7.48-4.542
					c-4.234,3.201-3.181,13.562-0.812,17.472"/>
				<path fill="#FFFFFF" d="M138.657,431.44c4.824-3.9,6.306-26.517-3.792-19.226c-2.674,1.93-3.919,7.712-3.367,10.747
					c0.551,3.042,2.402,5.889,4.2,8.123L138.657,431.44z"/>
				<path fill="#FFFFFF" d="M124.56,395.15c5.655,0.067,6.488-9.263,7.618-13.302c1.832-6.548,4.412-12.091,4.627-19.006
					c0.204-6.508-0.413-12.055,5.738-16.091c4.642-3.047,6.936,2.465,8.468,7.081c2.167,6.524-2.21,9.462-3.786,15.309
					c-2.542,9.437-1.447,17.766-8.258,25.466c-3.208,3.625-9.006,8.782-14.166,4.647L124.56,395.15z"/>
				<path fill="#FFFFFF" d="M119.581,415.841c2.271-1.025,5.921-2.04,4.973-5.356c-0.802-2.814-5.127-3.765-7.498-2.467
					c-2.606,1.429-4.785,7.725,0.311,6.935L119.581,415.841z"/>
				<path fill="#FFFFFF" d="M163.241,375.282c7.244-2.788,9.188-18.197-0.721-14.806c-3.794,1.299-6.954,4.408-7.309,8.631
					c-0.237,2.799,0.789,7.632,4.393,6.757L163.241,375.282z"/>
				<path fill="#FFFFFF" d="M148.512,322.099c3.471-10.563,11.767-20.149,20.133-27.424c6.147-5.343,13.54,2.05,20.489,4.245
					c9.781,3.087,15.468,9.483,15.187,20.188c-0.174,6.673,1.662,16.273-1.246,22.354c-3.124,6.533-11.772,4.977-18.331,5.192
					c-7.958,0.261-10.086-1.122-15.905-6.252c-5.705-5.031-16.01-8.402-19-15.197L148.512,322.099z"/>
				<path fill="#FFFFFF" d="M144.812,343.001c2.921,4.218,6.858-0.104,7.293-3.19c0.523-3.719-0.286-6.818-4.425-7.248
					c-7.679-0.791-7.627,5.908-4.145,10.228L144.812,343.001z"/>
				<path fill="#FFFFFF" d="M185.287,254.045c-2.487,4.947-9.169,8.057-6.819,14.365c1.964,5.271,9.606,5.008,14.805,4.261
					c11.663-1.672,13.45-12.728,18.063-21.479c2.112-4.004,5.756-7.035,0.598-11.354c-4.082-3.417-7.757-1.625-11.254,0.979
					c-2.892,2.154-5.481,3.798-8.129,6.254c-1.368,1.271-4.044,2.712-4.758,4.504L185.287,254.045z"/>
				<path fill="#FFFFFF" d="M210.036,276.609c-7.354-1.635-13.819,10.681-6.188,15.047c6.06,3.467,13.657-1.819,16.946-6.915
					c2.595-4.013,2.716-7.57-0.797-10.438c-2.881-2.352-3.476-1.339-7.117-0.635L210.036,276.609z"/>
				<path fill="#FFFFFF" d="M183.461,286.667c14.217-10.079-13.557-9.541-2.408-2.103L183.461,286.667z"/>
				<path fill="#FFFFFF" d="M166.907,286.828c4.485-0.473,7.644-7.004,1.678-7.645c-3.89-0.418-4.048,3.198-3.552,6.286
					L166.907,286.828z"/>
				<path fill="#FFFFFF" d="M243.496,242.243c8.842-1.412,14.258-3.455,20.379-9.985c5.179-5.523-0.275-9.402-6.337-9.378
					c-5.606,0.022-18.788,3.361-20.781,9.833c-1.353,4.387,1.562,8.485,5.802,8.852L243.496,242.243z"/>
				<path fill="#FFFFFF" d="M225.634,226.45c4.534-3.14,9.357,1.493,12.009-5.298c0.92-2.357,1.428-6.307-0.104-8.547
					c-5.668-8.283-16.31,1.694-20.705,5.543c-3.724,3.261-8.349,7.709-2.263,11.74c2.716,1.797,8.623,2.17,9.707-1.562
					L225.634,226.45z"/>
				<path fill="#FFFFFF" d="M227.688,252.232c3.836-1.396,8.231-4.39,5.938-9.742c-1.55-3.617-6.077-4.361-9.623-3.312
					c0.343,1.709,0.336,3.535,0.295,5.26c-2.185,1.727-0.976,5.854,2.192,5.5L227.688,252.232z"/>
				<path fill="#FFFFFF" d="M254.939,210.156c0.18,0.6-0.181,0.708,0.33,1.213c5.513,0.466,12.119,0.023,17.678-0.325
					c3.958-0.25,8.209-1.392,11.378-3.844c5.177-4.004,7.227-11.076,10.942-16.141c4.385-5.978,20.396-10.003,12.631-20.026
					c-6.586-8.504-19.656-1.189-26.828,3.143c-4.018,2.429-8.012,4.931-11.698,7.859c-3.784,3.011-8.462,5.07-12.073,8.159
					c-3.855,3.3-8.281,11.832-5.773,16.777L254.939,210.156z"/>
				<path fill="#FFFFFF" d="M309.318,197.725c6.078-1.349,7.315-5.56,1.889-7.65c-3.404-1.311-4.204-1.411-7.273,0.533
					c-1.6,1.015-5.199,3.364-5.146,5.465c0.084,3.451,5.583,3.7,8.233,2.849L309.318,197.725z"/>
				<path fill="#FFFFFF" d="M276.604,221.195c3.845-1.461-0.388-6.854-3.797-5.969c0.144,2.097-0.401,4.004,0.152,6.066
					c0.778,0.275,1.6,0.357,2.43,0.098L276.604,221.195z"/>
				<path fill="#FFFFFF" d="M245.193,260.624c8.939-6.217-2.965-12.548-7.141-8.306c-3.932,3.996,2.915,8.537,6.607,7.562
					L245.193,260.624z"/>
				<path fill="#FFFFFF" d="M335.876,169.436c0.37,8.601,10.019,6.689,15.78,5.764c6.508-1.046,13.066-2.301,11.478-10.466
					c-2.106-10.81-28.399-5.439-26.901,1.745L335.876,169.436z"/>
				<path fill="#FFFFFF" d="M343.021,146.739c-0.643,5.159,10.48,1.947,13.775,1.92c5.719-0.048,14.579-1.772,11.442-10.129
					c-3.784-10.083-24.436-3.348-26.011,5.85L343.021,146.739z"/>
				<path fill="#FFFFFF" d="M386.327,140.224c4.522-0.724,10.489-0.116,8.514-6.364c-1.005-3.18-3.157-4.42-6.915-3.838
					c-5.552,0.861-6.93,6.919-3.619,10.525L386.327,140.224z"/>
				<path fill="#FFFFFF" d="M380.946,160.98c2.627-1.381,6.2-3.36,3.435-7.192c-2.541-3.521-9.148-2.026-12.666-1.215
					c0.9,5.521,0.667,6.471,5.188,9.054L380.946,160.98z"/>
				<path fill="#FFFFFF" d="M463.408,144.135c2.336-8.7,14.369-19.628,14.922-4.77c0.096,2.574-0.141,5.1-0.925,7.21
					c-1.254,3.375-3.912,5.686-8.857,5.428C463.33,151.73,462.323,148.173,463.408,144.135z"/>
				<path fill="#FFFFFF" d="M492.168,124.833c-6.009,0.003-11.839,13.02-6.847,17.815c2.761,2.652,15.446,0.02,19.407-1.552"/>
				<path fill="#FFFFFF" d="M405.551,128.15c-1.811,7.365-4.508,14.142-5.922,21.19c-1.617,8.055-0.327,9.006,5.108,14.237
					c4.473,4.302,6.843,11.736,12.481,13.853c10.983,4.124,19.053-9.231,23.271-16.373c5.962-10.096,14.719-25.679,4.006-36.345
					c-5.585-5.56-13.378-1.431-20.905-2.089c-5.132-0.446-10.181-1.002-15.024-1.982L405.551,128.15z"/>
				<g>
					<path fill="#FFFFFF" d="M828.146,449.031h-38.339v-1.5c0-92.678-36.091-179.809-101.624-245.34
						C622.65,136.658,535.52,100.567,442.843,100.567c-92.678,0-179.808,36.091-245.341,101.625S95.88,354.854,95.88,447.531v1.5
						H57.541v-1.5c0-52.016,10.188-102.476,30.28-149.979c19.406-45.881,47.188-87.087,82.573-122.472s76.59-63.167,122.472-82.573
						c47.503-20.092,97.963-30.28,149.978-30.28c52.016,0,102.476,10.188,149.979,30.28c45.881,19.406,87.087,47.188,122.472,82.573
						s63.167,76.591,82.573,122.472c20.092,47.503,30.279,97.963,30.279,149.979V449.031L828.146,449.031z"/>
				</g>
				<g>
					<polygon fill="#FFFFFF" points="206.812,120.631 223.702,134.423 208.773,144.271 					"/>
					<polygon fill="#FFFFFF" points="115.67,211.227 129.736,228.389 139.311,213.188 					"/>
					<path fill="#36A9E1" d="M118.894,209.382c20.439,10.573,65.731,31.87,65.731,31.87l51.788-51.788
						c0,0-22.833-48.469-31.504-66.097C184.117,121.432,125.561,175.946,118.894,209.382z"/>
					<path fill="#FFFFFF" d="M154.414,155.27c18.635-18.635,39.68-32.911,50.498-31.905c8.67,17.629,31.504,66.097,31.504,66.097
						l-51.788,51.788c0,0-45.292-21.297-65.731-31.869C122.095,193.339,137.23,172.453,154.414,155.27 M152.292,153.148
						c-19.743,19.743-33.327,40.545-36.337,55.645l-0.441,2.214l2.005,1.037c20.256,10.479,65.379,31.707,65.833,31.92l1.907,0.897
						l1.49-1.491l51.788-51.787l1.492-1.492l-0.899-1.908c-0.228-0.485-22.942-48.693-31.526-66.143l-0.74-1.508l-1.674-0.154
						C191.6,119.112,168.201,137.24,152.292,153.148L152.292,153.148z"/>
					<g>
						<path fill="#36A9E1" d="M127.584,206.162c17.609,9.109,56.63,27.457,56.63,27.457l44.617-44.617
							c0,0-19.671-41.758-27.142-56.944C183.776,130.39,133.327,177.355,127.584,206.162z"/>
					</g>
					<g>
						
							<rect x="128.839" y="170.315" transform="matrix(-0.7071 0.7071 -0.7071 -0.7071 407.1571 174.9794)" fill="#FFFFFF" width="76.999" height="3"/>
						
							<rect x="153.011" y="185.451" transform="matrix(-0.7071 0.7071 -0.7071 -0.7071 443.6953 190.1177)" fill="#FFFFFF" width="58.924" height="3.001"/>
						
							<rect x="175.849" y="200.584" transform="matrix(-0.7071 0.7071 -0.7071 -0.7071 480.2314 205.2484)" fill="#FFFFFF" width="43.516" height="3"/>
					</g>
				</g>
			</g>
		</g>
	</g>
</g>
</svg>
