<?xml version="1.0" encoding="utf-8"?>
<!-- Generator: Adobe Illustrator 16.0.0, SVG Export Plug-In . SVG Version: 6.00 Build 0)  -->
<!DOCTYPE svg PUBLIC "-//W3C//DTD SVG 1.1//EN" "http://www.w3.org/Graphics/SVG/1.1/DTD/svg11.dtd">
<svg version="1.1" id="Ebene_1" xmlns="http://www.w3.org/2000/svg" xmlns:xlink="http://www.w3.org/1999/xlink" x="0px" y="0px"
	 width="400px" height="400px" viewBox="0 0 400 400" enable-background="new 0 0 400 400" xml:space="preserve">
<g id="Community">
	<path fill="#FFFFFF" d="M200,45c41.4,0,80.325,16.123,109.602,45.398C338.877,119.675,355,158.599,355,200
		c0,41.402-16.123,80.326-45.398,109.602C280.325,338.877,241.4,355,200,355c-41.402,0-80.326-16.123-109.602-45.398
		C61.122,280.327,45,241.402,45,200c0-41.401,16.123-80.325,45.398-109.602C119.674,61.123,158.598,45,200,45 M200,25
		c-96.65,0-175,78.352-175,175c0,96.65,78.35,175,175,175c96.648,0,175-78.35,175-175C375,103.352,296.648,25,200,25L200,25z"/>
	<circle fill="#C16F6F" cx="200" cy="200.5" r="165"/>
	<g>
		<g>
			<defs>
				<circle id="SVGID_1_" cx="200" cy="200.5" r="165"/>
			</defs>
			<clipPath id="SVGID_2_">
				<use xlink:href="#SVGID_1_"  overflow="visible"/>
			</clipPath>
			<path clip-path="url(#SVGID_2_)" fill="#FFFFFF" d="M247.374,320.323c0.007-12.595,3.052-22.354,8.806-28.228
				c4.305-4.393,8.676-5.111,8.713-5.117l1.116-0.162v-8.553l0.08,0.014v-5.92l-0.081-0.015v-0.198h-0.268v-7.905v-1.329v-4.725
				v-0.555v-0.773c-5.877-1.158-13.068-2.135-21.165-2.9v-29.112c0-2.653,0.31-4.834,0.886-6.448l5.837-2.603l-0.129-0.053
				l0.297,0.075l-0.092-2.53v-6v-0.843c0.017,0.002,0.034,0.005,0.052,0.007c0-3.439,0-3.886,0-7.175
				c-5.711-0.658-12.058-1.206-18.874-1.625v-51.705c4.105-0.819,8.023-2.108,8.023-4.051c0,0-0.722-3.361-4.322-3.361
				c0,0-3.517-29.949-29.701-34.287v-6.529c0,0,0.066-3.487-3.739-4.66v-2.165c3.662-1.186,6.312-4.62,6.312-8.677
				c0-5.039-4.084-9.124-9.123-9.124s-9.123,4.085-9.123,9.124c0,4.057,2.649,7.491,6.312,8.677v2.166
				c-3.807,1.173-3.739,4.66-3.739,4.66v6.528c-26.188,4.337-29.703,34.288-29.703,34.288c-3.602,0-4.322,3.361-4.322,3.361
				c0,1.943,3.918,3.232,8.023,4.051v51.798c-6.842,0.444-13.192,1.019-18.873,1.705c0,2.037,0.009,3.853,0.011,6.08l-0.051,0.006
				v1.752v6v2.508l0.574-0.145l-0.354,0.145l5.661,2.523c0.595,1.623,0.918,3.83,0.918,6.526v29.121
				c-8.06,0.765-15.22,1.738-21.073,2.892v0.537v0.793v4.725v1.329v7.905h-0.268v13.543l0.005,1.119h0.004l0,0l0.5,0.077
				l0.602,0.093c0.044,0.008,4.414,0.727,8.719,5.119c2.84,2.898,5.017,6.748,6.497,11.414c0.02,0.062,0.042,0.118,0.061,0.178
				c0.089,0.285,0.166,0.58,0.249,0.869c1.312,4.56,1.995,9.845,1.998,15.766l-20.202,330.419l0,0h135.152l0,0L247.374,320.323z
				 M249.417,213.279v0.007c0,0-0.194-0.038-0.513-0.04C249.16,213.246,249.34,213.268,249.417,213.279z M235.977,259.303
				c-4.365-0.311-8.924-0.566-13.629-0.76v-4.749c4.707,0.194,9.266,0.45,13.629,0.761V259.303z M235.977,260.609v8.078
				c-4.365-0.31-8.924-0.562-13.629-0.754v-8.086C227.055,260.042,231.611,260.298,235.977,260.609z M213.593,267.65v-8.084
				c2.513,0.062,5.007,0.135,7.451,0.229v8.086C218.598,267.788,216.109,267.712,213.593,267.65z M188.809,252.15v-24.408
				c0,0,0.534-11.192,11.191-11.192s11.191,11.192,11.191,11.192v24.408c-3.681-0.074-7.418-0.112-11.191-0.112
				C196.225,252.038,192.488,252.076,188.809,252.15z M199.348,253.343v4.749c-3.554,0.004-7.071,0.042-10.539,0.112v-4.749
				C192.276,253.386,195.794,253.348,199.348,253.343z M200.652,253.343c3.554,0.005,7.07,0.042,10.539,0.112v4.749
				c-3.469-0.069-6.986-0.106-10.539-0.112V253.343z M221.044,258.49c-2.444-0.094-4.938-0.167-7.451-0.229v-4.748
				c2.513,0.062,5.007,0.133,7.451,0.229V258.49z M199.348,259.396v8.093H200h0.652v-8.093c3.554,0.004,7.07,0.043,10.539,0.112
				v8.091c-3.676-0.072-7.41-0.11-11.191-0.11s-7.517,0.038-11.191,0.11v-8.091C192.276,259.439,195.794,259.4,199.348,259.396z
				 M186.407,258.262c-2.513,0.062-5.006,0.135-7.451,0.229v-4.749c2.445-0.095,4.938-0.167,7.451-0.229V258.262z M186.407,259.566
				v8.084c-2.517,0.062-5.004,0.138-7.451,0.23v-8.086C181.401,259.701,183.895,259.628,186.407,259.566z M244.575,255.268
				c7.522,0.715,14.257,1.61,19.86,2.668v4.727c-5.623-1.049-12.354-1.939-19.86-2.648V255.268z M264.436,263.988v8.06
				c-5.681-1.055-12.392-1.946-19.859-2.651v-8.074C252.098,262.036,258.832,262.932,264.436,263.988z M235.977,229.698v23.55
				c-7.027-0.5-14.561-0.854-22.384-1.045v-22.505c0,0,0.533-11.191,11.191-11.191C235.441,218.507,235.977,229.698,235.977,229.698
				z M200.979,187.809v-27.694c10.316,0.018,20.342,0.314,29.615,0.857v-0.32v-1.311v-0.326c-9.285-0.544-19.311-0.84-29.615-0.858
				v-10.982h22.312c0,0,3.474-0.242,7.308-0.876v51.233c-9.176-0.523-19.162-0.814-29.617-0.818v-6.949
				c10.315,0.018,20.341,0.313,29.615,0.857v-0.319v-1.311v-0.326C221.309,188.123,211.283,187.827,200.979,187.809z
				 M169.404,146.299c3.833,0.634,7.307,0.876,7.307,0.876h22.311v10.982c-10.307,0.018-20.326,0.314-29.614,0.858v0.326v1.311v0.32
				c9.275-0.543,19.301-0.84,29.614-0.857v27.694c-10.307,0.018-20.326,0.314-29.614,0.857v0.326v1.311v0.319
				c9.275-0.543,19.301-0.839,29.614-0.857v6.954c-10.479,0.032-20.473,0.347-29.617,0.898v-51.318H169.404z M164.023,229.698
				c0,0,0.534-11.191,11.192-11.191c10.658,0,11.191,11.191,11.191,11.191v22.505c-7.824,0.191-15.355,0.544-22.384,1.045
				L164.023,229.698L164.023,229.698z M164.023,254.557c4.364-0.312,8.922-0.567,13.628-0.762v4.749
				c-4.704,0.194-9.262,0.449-13.628,0.761V254.557z M177.651,259.848v8.086c-4.705,0.192-9.264,0.444-13.628,0.754v-8.078
				C168.388,260.298,172.945,260.042,177.651,259.848z M135.563,257.936c5.581-1.054,12.284-1.945,19.77-2.658v4.744
				c-7.469,0.709-14.17,1.596-19.77,2.641V257.936z M155.333,261.331v8.075c-7.432,0.705-14.113,1.593-19.77,2.643v-8.06
				C141.145,262.936,147.848,262.043,155.333,261.331z"/>
		</g>
	</g>
</g>
</svg>
