<svg viewBox="0 0 24 24" xmlns="http://www.w3.org/2000/svg">
  <g stroke-linecap="round" stroke-width="1.8" stroke="#000" fill="none" stroke-linejoin="round">
    <path d="M14.198 10.791c0-1.214-.984-2.198-2.198-2.198s-2.198.984-2.198 2.198.984 2.198 2.198 2.198 2.198-.984 2.198-2.198zM12 22v0c-.967 0-1.75-.784-1.75-1.75v-2.698c0-.966.784-1.75 1.75-1.75v0c.966 0 1.75.784 1.75 1.75v2.698c0 .966-.784 1.75-1.75 1.75z"/>
    <path d="M17 18.011c2.289-1.586 3.791-4.225 3.791-7.22C20.791 5.936 16.855 2 12 2s-8.791 3.936-8.791 8.791c0 2.995 1.502 5.634 3.791 7.22"/>
    <path d="M8 14.549c-.924-.983-1.494-2.303-1.494-3.758 0-3.034 2.46-5.494 5.494-5.494s5.494 2.46 5.494 5.494c0 1.456-.57 2.775-1.494 3.758"/>
  </g>
  <path fill="none" d="M0 0h24v24H0V0z"/>
</svg>