<?xml version="1.0" encoding="utf-8"?>
<!-- Generator: Adobe Illustrator 16.0.0, SVG Export Plug-In . SVG Version: 6.00 Build 0)  -->
<!DOCTYPE svg PUBLIC "-//W3C//DTD SVG 1.1//EN" "http://www.w3.org/Graphics/SVG/1.1/DTD/svg11.dtd">
<svg version="1.1" id="Ebene_1" xmlns="http://www.w3.org/2000/svg" xmlns:xlink="http://www.w3.org/1999/xlink" x="0px" y="0px"
	 width="400px" height="400px" viewBox="0 0 400 400" enable-background="new 0 0 400 400" xml:space="preserve">
<g id="Portmaster">
	<path fill="#FFFFFF" d="M200,45c41.4,0,80.325,16.123,109.602,45.398C338.877,119.675,355,158.599,355,200
		c0,41.402-16.123,80.326-45.398,109.602C280.325,338.877,241.4,355,200,355c-41.402,0-80.326-16.123-109.602-45.398
		C61.122,280.327,45,241.402,45,200c0-41.401,16.123-80.325,45.398-109.602C119.674,61.123,158.598,45,200,45 M200,25
		c-96.65,0-175,78.352-175,175c0,96.65,78.35,175,175,175c96.648,0,175-78.35,175-175C375,103.352,296.648,25,200,25L200,25z"/>
	<circle fill="#36A9E1" cx="200" cy="200.5" r="165"/>
	<g>
		<g>
			<defs>
				<circle id="SVGID_1_" cx="200" cy="200.5" r="165"/>
			</defs>
			<clipPath id="SVGID_2_">
				<use xlink:href="#SVGID_1_"  overflow="visible"/>
			</clipPath>
			<g display="none" clip-path="url(#SVGID_2_)">
				<path display="inline" fill="#A88F71" d="M181.824,640.083l-11.583-36.619C165.914,557.033,314.089,260.855,320.4,248.27
					c7.447-15.709,9.065-27.115,4.648-32.918c-4.919-6.463-16.591-4.634-16.71-4.612l-0.526,0.05l-215.718,2.999
					c-15.376-0.095-25.413-4.228-29.89-12.272c-4.172-7.497-2.88-17.823,3.544-28.329c9.046-14.792,155.854-225.371,157.657-227.931
					l5.458,3.845C228.425-50.273,80.38,162.064,71.446,176.673c-5.057,8.268-6.331,16.341-3.406,21.596
					c3.175,5.704,11.48,8.76,24.028,8.842l215.411-2.995c2.228-0.337,15.918-1.962,22.883,7.192
					c6.113,8.033,4.779,21.452-3.961,39.889c-1.566,3.123-152.883,305.552-149.541,351.305l9.993,31.372
					c29.355,2.938,299.512,30.503,339.841,53.685l-3.325,5.791c-40.526-23.271-336.374-52.752-339.359-53.049L181.824,640.083z"/>
				<g display="inline">
					<polygon fill="#EEC589" points="154.972,169.864 180.889,169.78 136.911,238.479 111.207,237.754 					"/>
					<path fill="#A88F71" d="M180.889,169.78l-43.979,68.696l-25.704-0.724l43.766-67.89L180.889,169.78 M193.119,163.062
						l-12.25,0.04l-25.917,0.083l-3.627,0.011l-1.964,3.048l-43.766,67.89l-6.422,9.959l11.847,0.334l25.704,0.726l3.775,0.104
						l2.036-3.182l43.979-68.697L193.119,163.062L193.119,163.062z"/>
				</g>
				<g display="inline">
					<polygon fill="#EEC589" points="202.611,169.618 228.529,169.535 184.55,238.232 158.846,237.508 					"/>
					<path fill="#A88F71" d="M228.529,169.535l-43.979,68.697l-25.704-0.725l43.765-67.89L228.529,169.535 M240.758,162.818
						l-12.25,0.04l-25.917,0.083l-3.627,0.011L197,166l-43.766,67.891l-6.421,9.957l11.846,0.336l25.705,0.725l3.776,0.105
						l2.035-3.183l43.979-68.697L240.758,162.818L240.758,162.818z"/>
				</g>
				<g display="inline">
					<polygon fill="#EEC589" points="250.122,169.868 276.039,169.785 232.061,238.482 206.355,237.758 					"/>
					<path fill="#A88F71" d="M276.039,169.785l-43.979,68.697l-25.705-0.725l43.767-67.89L276.039,169.785 M288.268,163.067
						l-12.25,0.04L250.1,163.19l-3.627,0.012l-1.964,3.048l-43.767,67.891l-6.422,9.959l11.846,0.334l25.704,0.725l3.776,0.105
						l2.035-3.183l43.979-68.697L288.268,163.067L288.268,163.067z"/>
				</g>
			</g>
		</g>
		<g>
			<defs>
				<circle id="SVGID_3_" cx="200" cy="200.5" r="165"/>
			</defs>
			<clipPath id="SVGID_4_">
				<use xlink:href="#SVGID_3_"  overflow="visible"/>
			</clipPath>
			<g display="none" clip-path="url(#SVGID_4_)">
				<path display="inline" fill="#FFFFFF" d="M181.824,640.083l-11.583-36.619C165.914,557.033,314.089,260.855,320.4,248.27
					c7.447-15.709,9.065-27.115,4.648-32.918c-4.919-6.463-16.591-4.634-16.71-4.612l-0.526,0.05l-215.718,2.999
					c-15.376-0.095-25.413-4.228-29.89-12.272c-4.172-7.497-2.88-17.823,3.544-28.329c9.046-14.792,155.854-225.371,157.657-227.931
					l5.458,3.845C228.425-50.273,80.38,162.064,71.446,176.673c-5.057,8.268-6.331,16.341-3.406,21.596
					c3.175,5.704,11.48,8.76,24.028,8.842l215.411-2.995c2.228-0.337,15.918-1.962,22.883,7.192
					c6.113,8.033,4.779,21.452-3.961,39.889c-1.566,3.123-152.883,305.552-149.541,351.305l9.993,31.372
					c29.355,2.938,299.512,30.503,339.841,53.685l-3.325,5.791c-40.526-23.271-336.374-52.752-339.359-53.049L181.824,640.083z"/>
				<g display="inline">
					<polygon fill="#FFFFFF" points="154.972,169.864 180.889,169.78 136.911,238.479 111.207,237.754 					"/>
					<path fill="#36A9E1" d="M180.889,169.78l-43.979,68.696l-25.704-0.724l43.766-67.89L180.889,169.78 M193.119,163.062
						l-12.25,0.04l-25.917,0.083l-3.627,0.011l-1.964,3.048l-43.766,67.89l-6.422,9.959l11.847,0.334l25.704,0.726l3.775,0.104
						l2.036-3.182l43.979-68.697L193.119,163.062L193.119,163.062z"/>
				</g>
				<g display="inline">
					<polygon fill="#FFFFFF" points="202.611,169.618 228.529,169.535 184.55,238.232 158.846,237.508 					"/>
					<path fill="#36A9E1" d="M228.529,169.535l-43.979,68.697l-25.704-0.725l43.765-67.89L228.529,169.535 M240.758,162.818
						l-12.25,0.04l-25.917,0.083l-3.627,0.011L197,166l-43.766,67.891l-6.421,9.957l11.846,0.336l25.705,0.725l3.776,0.105
						l2.035-3.183l43.979-68.697L240.758,162.818L240.758,162.818z"/>
				</g>
				<g display="inline">
					<polygon fill="#FFFFFF" points="250.122,169.868 276.039,169.785 232.061,238.482 206.355,237.758 					"/>
					<path fill="#36A9E1" d="M276.039,169.785l-43.979,68.697l-25.705-0.725l43.767-67.89L276.039,169.785 M288.268,163.067
						l-12.25,0.04L250.1,163.19l-3.627,0.012l-1.964,3.048l-43.767,67.891l-6.422,9.959l11.846,0.334l25.704,0.725l3.776,0.105
						l2.035-3.183l43.979-68.697L288.268,163.067L288.268,163.067z"/>
				</g>
			</g>
		</g>
		<g>
			<defs>
				<circle id="SVGID_5_" cx="200" cy="200.5" r="165"/>
			</defs>
			<clipPath id="SVGID_6_">
				<use xlink:href="#SVGID_5_"  overflow="visible"/>
			</clipPath>
			<g clip-path="url(#SVGID_6_)">
				<path fill="#FFFFFF" d="M181.824,640.083l-11.583-36.619C165.914,557.033,314.089,260.855,320.4,248.27
					c7.447-15.709,9.065-27.115,4.648-32.918c-4.919-6.463-16.591-4.634-16.71-4.612l-0.526,0.05l-215.718,2.999
					c-15.376-0.095-25.413-4.228-29.89-12.272c-4.172-7.497-2.88-17.823,3.544-28.329c9.046-14.792,155.854-225.371,157.657-227.931
					l5.458,3.845C228.425-50.273,80.38,162.064,71.446,176.673c-5.057,8.268-6.331,16.341-3.406,21.596
					c3.175,5.704,11.48,8.76,24.028,8.842l215.411-2.995c2.228-0.337,15.918-1.962,22.883,7.192
					c6.113,8.033,4.779,21.452-3.961,39.889c-1.566,3.123-152.883,305.552-149.541,351.305l9.993,31.372
					c29.355,2.938,299.512,30.503,339.841,53.685l-3.325,5.791c-40.526-23.271-336.374-52.752-339.359-53.049L181.824,640.083z"/>
				<g>
					<polygon fill="#36A9E1" points="154.972,169.864 180.889,169.78 136.911,238.479 111.207,237.754 					"/>
					<path fill="#FFFFFF" d="M180.889,169.78l-43.979,68.696l-25.704-0.724l43.766-67.89L180.889,169.78 M193.119,163.062
						l-12.25,0.04l-25.917,0.083l-3.627,0.011l-1.964,3.048l-43.766,67.89l-6.422,9.959l11.847,0.334l25.704,0.726l3.775,0.104
						l2.036-3.182l43.979-68.697L193.119,163.062L193.119,163.062z"/>
				</g>
				<g>
					<polygon fill="#36A9E1" points="202.611,169.618 228.529,169.535 184.55,238.232 158.846,237.508 					"/>
					<path fill="#FFFFFF" d="M228.529,169.535l-43.979,68.697l-25.704-0.725l43.765-67.89L228.529,169.535 M240.758,162.818
						l-12.25,0.04l-25.917,0.083l-3.627,0.011L197,166l-43.766,67.891l-6.421,9.957l11.846,0.336l25.705,0.725l3.776,0.105
						l2.035-3.183l43.979-68.697L240.758,162.818L240.758,162.818z"/>
				</g>
				<g>
					<polygon fill="#36A9E1" points="250.122,169.868 276.039,169.785 232.061,238.482 206.355,237.758 					"/>
					<path fill="#FFFFFF" d="M276.039,169.785l-43.979,68.697l-25.705-0.725l43.767-67.89L276.039,169.785 M288.268,163.067
						l-12.25,0.04L250.1,163.19l-3.627,0.012l-1.964,3.048l-43.767,67.891l-6.422,9.959l11.846,0.334l25.704,0.725l3.776,0.105
						l2.035-3.183l43.979-68.697L288.268,163.067L288.268,163.067z"/>
				</g>
			</g>
		</g>
	</g>
</g>
</svg>
