<svg class="h-8 w-8" viewBox="0 0 24 24" xmlns="http://www.w3.org/2000/svg">
                                    <g stroke-linecap="round" stroke-width="1.8" stroke="#446eed" fill="none" stroke-linejoin="round">
                                        <path d="M13.7678 10.9822c.976311.976311.976311 2.55922 0 3.53553-.976311.976311-2.55922.976311-3.53553 0-.976311-.976311-.976311-2.55922 0-3.53553.976311-.976311 2.55922-.976311 3.53553 0M19.2538 4.98223c.976311.976311.976311 2.55922 0 3.53553-.976311.976311-2.55922.976311-3.53553 0-.976311-.976311-.976311-2.55922 0-3.53553.976311-.976311 2.55922-.976311 3.53553 0M18 12.25c1.533 0 3 .533 4 1.333M8.28177 4.98223c.976311.976311.976311 2.55922 0 3.53553-.976311.976311-2.55922.976311-3.53553 0-.976311-.976311-.976311-2.55922 0-3.53553.976311-.976311 2.55922-.976311 3.53553 0M2 13.583c1-.8 2.467-1.333 4-1.333M16.591 19.75c-1.165-.901-2.839-1.5-4.591-1.5-1.752 0-3.426.599-4.591 1.5"/>
                                    </g>
                                </svg>