<?xml version="1.0" encoding="utf-8"?>
<!-- Generator: Adobe Illustrator 26.5.0, SVG Export Plug-In . SVG Version: 6.00 Build 0)  -->
<svg version="1.1" id="Layer_1" xmlns="http://www.w3.org/2000/svg" xmlns:xlink="http://www.w3.org/1999/xlink" x="0px" y="0px"
	 viewBox="0 0 1600 450.9" style="enable-background:new 0 0 1600 450.9;" xml:space="preserve">
<style type="text/css">
	.st0{fill-rule:evenodd;clip-rule:evenodd;fill:none;stroke:url(#SVGID_1_);stroke-width:5.71;stroke-miterlimit:10;}
	
		.st1{fill-rule:evenodd;clip-rule:evenodd;fill:none;stroke:url(#SVGID_00000104685481286792457230000008921605452208958646_);stroke-width:5.71;stroke-miterlimit:10;}
	
		.st2{fill-rule:evenodd;clip-rule:evenodd;fill:none;stroke:url(#SVGID_00000142152001746109812370000004608932352994816649_);stroke-width:5.71;stroke-miterlimit:10;}
</style>
<linearGradient id="SVGID_1_" gradientUnits="userSpaceOnUse" x1="-3.753804e-02" y1="180.7746" x2="1600.0376" y2="180.7746">
	<stop  offset="0" style="stop-color:#3C63AE"/>
	<stop  offset="0.6238" style="stop-color:#32BDEE"/>
	<stop  offset="1" style="stop-color:#3C63AE"/>
</linearGradient>
<path class="st0" d="M1600,293.7c-199.2,0-248.6-209.2-490.2-279.2S708.8,271.8,440.2,336.4S111.7,290.6,0,293.7"/>
<linearGradient id="SVGID_00000145019140477983162140000017651460401676970138_" gradientUnits="userSpaceOnUse" x1="-3.753804e-02" y1="226.7746" x2="1600.0376" y2="226.7746">
	<stop  offset="0" style="stop-color:#3C63AE"/>
	<stop  offset="0.3845" style="stop-color:#32BDEE"/>
	<stop  offset="1" style="stop-color:#3C63AE"/>
</linearGradient>
<path style="fill-rule:evenodd;clip-rule:evenodd;fill:none;stroke:url(#SVGID_00000145019140477983162140000017651460401676970138_);stroke-width:5.71;stroke-miterlimit:10;" d="
	M1600,339.7c-199.2,0-248.6-209.2-490.2-279.2S708.8,317.8,440.2,382.4S111.7,336.6,0,339.7"/>
<linearGradient id="SVGID_00000156552187348551885030000007483777474792072604_" gradientUnits="userSpaceOnUse" x1="-3.753804e-02" y1="270.7746" x2="1600.0376" y2="270.7746">
	<stop  offset="0" style="stop-color:#3C63AE"/>
	<stop  offset="0.7236" style="stop-color:#32BDEE"/>
	<stop  offset="1" style="stop-color:#3C63AE"/>
</linearGradient>
<path style="fill-rule:evenodd;clip-rule:evenodd;fill:none;stroke:url(#SVGID_00000156552187348551885030000007483777474792072604_);stroke-width:5.71;stroke-miterlimit:10;" d="
	M1600,383.7c-199.2,0-248.6-209.2-490.2-279.2S708.8,361.8,440.2,426.4S111.7,380.6,0,383.7"/>
</svg>
