<svg xmlns="http://www.w3.org/2000/svg" xmlns:xlink="http://www.w3.org/1999/xlink" id="Layer_1" x="0" y="0" version="1.1" viewBox="0 0 1600 450.9" style="enable-background:new 0 0 1600 450.9" xml:space="preserve"><style type="text/css">.st0{fill-rule:evenodd;clip-rule:evenodd;fill:none;stroke:url(#SVGID_1_);stroke-width:5.71;stroke-miterlimit:10}</style><linearGradient id="SVGID_1_" x1="-.038" x2="1600.038" y1="180.775" y2="180.775" gradientUnits="userSpaceOnUse"><stop offset="0" style="stop-color:#3c63ae"/><stop offset=".624" style="stop-color:#32bdee"/><stop offset="1" style="stop-color:#3c63ae"/></linearGradient><path d="M1600,293.7c-199.2,0-248.6-209.2-490.2-279.2S708.8,271.8,440.2,336.4S111.7,290.6,0,293.7" class="st0"/><linearGradient id="SVGID_00000145019140477983162140000017651460401676970138_" x1="-.038" x2="1600.038" y1="226.775" y2="226.775" gradientUnits="userSpaceOnUse"><stop offset="0" style="stop-color:#3c63ae"/><stop offset=".385" style="stop-color:#32bdee"/><stop offset="1" style="stop-color:#3c63ae"/></linearGradient><path style="fill-rule:evenodd;clip-rule:evenodd;fill:none;stroke:url(#SVGID_00000145019140477983162140000017651460401676970138_);stroke-width:5.71;stroke-miterlimit:10" d="M1600,339.7c-199.2,0-248.6-209.2-490.2-279.2S708.8,317.8,440.2,382.4S111.7,336.6,0,339.7"/><linearGradient id="SVGID_00000156552187348551885030000007483777474792072604_" x1="-.038" x2="1600.038" y1="270.775" y2="270.775" gradientUnits="userSpaceOnUse"><stop offset="0" style="stop-color:#3c63ae"/><stop offset=".724" style="stop-color:#32bdee"/><stop offset="1" style="stop-color:#3c63ae"/></linearGradient><path style="fill-rule:evenodd;clip-rule:evenodd;fill:none;stroke:url(#SVGID_00000156552187348551885030000007483777474792072604_);stroke-width:5.71;stroke-miterlimit:10" d="M1600,383.7c-199.2,0-248.6-209.2-490.2-279.2S708.8,361.8,440.2,426.4S111.7,380.6,0,383.7"/></svg>