<svg xmlns="http://www.w3.org/2000/svg" viewBox="0 0 3033 3333" shape-rendering="geometricPrecision" text-rendering="geometricPrecision" image-rendering="optimizeQuality" fill-rule="evenodd" clip-rule="evenodd" fill="#396bf5"><path d="M1511 0c566 358 1076 528 1515 488 77 1549-495 2464-1509 2845C538 2976-41 2100 2 464c515 27 1020-84 1509-464zm12 530c386 244 734 360 1033 333 52 1056-338 1680-1029 1940-4-2-9-3-13-5V537l9-7zm-12-339c501 317 953 467 1341 432 68 1371-439 2181-1336 2519C650 2826 137 2051 175 603c456 24 903-75 1336-411z"/></svg>