<svg xmlns="http://www.w3.org/2000/svg" xmlns:xlink="http://www.w3.org/1999/xlink" id="Layer_1" x="0" y="0" version="1.1" viewBox="0 0 1600 450.9" style="enable-background:new 0 0 1600 450.9" xml:space="preserve"><style type="text/css">.st0{fill:none;stroke:url(#SVGID_1_);stroke-width:5.71;stroke-miterlimit:10}</style><linearGradient id="SVGID_1_" x1="-.079" x2="1600" y1="168.543" y2="168.543" gradientUnits="userSpaceOnUse"><stop offset="0" style="stop-color:#3c63ae"/><stop offset=".57" style="stop-color:#32bdee"/><stop offset="1" style="stop-color:#3c63ae"/></linearGradient><path d="M1600,305.7c-199.2,0-288-206-478.4-258.4c-242.5-66.8-482.9,92.6-720.8,193.1C237.2,309.5,111.7,302.6,0,305.7" class="st0"/><linearGradient id="SVGID_00000062885704763757242670000001618261156935598259_" x1="-.079" x2="1600" y1="219.017" y2="219.017" gradientUnits="userSpaceOnUse"><stop offset="0" style="stop-color:#9866ec"/><stop offset=".724" style="stop-color:#715dd3"/><stop offset="1" style="stop-color:#9866ec"/></linearGradient><path style="fill:none;stroke:url(#SVGID_00000062885704763757242670000001618261156935598259_);stroke-width:5.71;stroke-miterlimit:10" d="M1600,356.2c-199.2,0-288-206-478.4-258.4c-242.5-66.8-482.9,92.6-720.8,193.1C237.2,360,111.7,353.1,0,356.2"/><linearGradient id="SVGID_00000090267639511514360480000014259391069753604762_" x1="-.079" x2="1600" y1="267.092" y2="267.092" gradientUnits="userSpaceOnUse"><stop offset="0" style="stop-color:#43ea80"/><stop offset=".717" style="stop-color:#38f8d4"/><stop offset="1" style="stop-color:#43ea80"/></linearGradient><path style="fill:none;stroke:url(#SVGID_00000090267639511514360480000014259391069753604762_);stroke-width:5.71;stroke-miterlimit:10" d="M1600,404.2c-199.2,0-288-206-478.4-258.4C879.1,79,638.7,238.4,400.8,339C237.2,408.1,111.7,401.1,0,404.2"/></svg>