<?xml version="1.0" encoding="utf-8"?>
<!-- Generator: Adobe Illustrator 26.5.0, SVG Export Plug-In . SVG Version: 6.00 Build 0)  -->
<svg version="1.1" id="Layer_1" xmlns="http://www.w3.org/2000/svg" xmlns:xlink="http://www.w3.org/1999/xlink" x="0px" y="0px"
	 viewBox="0 0 1600 450.9" style="enable-background:new 0 0 1600 450.9;" xml:space="preserve">
<style type="text/css">
	.st0{fill:none;stroke:url(#SVGID_1_);stroke-width:5.71;stroke-miterlimit:10;}
	.st1{fill:none;stroke:url(#SVGID_00000155866279590369718120000006497566973382577570_);stroke-width:5.71;stroke-miterlimit:10;}
	.st2{fill:none;stroke:url(#SVGID_00000114036739990644578370000015393792611237818807_);stroke-width:5.71;stroke-miterlimit:10;}
</style>
<linearGradient id="SVGID_1_" gradientUnits="userSpaceOnUse" x1="-7.920422e-02" y1="270.2201" x2="1600" y2="270.2201" gradientTransform="matrix(1 0 0 -1 0 450.9476)">
	<stop  offset="0" style="stop-color:#43EA80"/>
	<stop  offset="0.7174" style="stop-color:#38F8D4"/>
	<stop  offset="1" style="stop-color:#43EA80"/>
</linearGradient>
<path class="st0" d="M1600,293.7c-199.2,0-248.6-209.2-490.2-279.2s-401,257.3-669.6,321.9S111.7,290.6,0,293.7"/>
<linearGradient id="SVGID_00000145763225531825905070000000587777309620014999_" gradientUnits="userSpaceOnUse" x1="-7.920422e-02" y1="224.2201" x2="1600" y2="224.2201" gradientTransform="matrix(1 0 0 -1 0 450.9476)">
	<stop  offset="0" style="stop-color:#3C63AE"/>
	<stop  offset="0.5697" style="stop-color:#32BDEE"/>
	<stop  offset="1" style="stop-color:#3C63AE"/>
</linearGradient>
<path style="fill:none;stroke:url(#SVGID_00000145763225531825905070000000587777309620014999_);stroke-width:5.71;stroke-miterlimit:10;" d="
	M1600,339.7c-199.2,0-248.6-209.2-490.2-279.2s-401,257.3-669.6,321.9S111.7,336.6,0,339.7"/>
<linearGradient id="SVGID_00000094579821163550307540000011785392846497457795_" gradientUnits="userSpaceOnUse" x1="-7.920422e-02" y1="180.2201" x2="1600" y2="180.2201" gradientTransform="matrix(1 0 0 -1 0 450.9476)">
	<stop  offset="0" style="stop-color:#9866EC"/>
	<stop  offset="0.7236" style="stop-color:#715DD3"/>
	<stop  offset="1" style="stop-color:#9866EC"/>
</linearGradient>
<path style="fill:none;stroke:url(#SVGID_00000094579821163550307540000011785392846497457795_);stroke-width:5.71;stroke-miterlimit:10;" d="
	M1600,383.7c-199.2,0-248.6-209.2-490.2-279.2s-401,257.3-669.6,321.9S111.7,380.6,0,383.7"/>
</svg>
