<svg xmlns="http://www.w3.org/2000/svg" xmlns:xlink="http://www.w3.org/1999/xlink" id="Ebene_1" width="600" height="600" x="0" y="0" enable-background="new 0 0 600 600" version="1.1" viewBox="0 0 600 600" xml:space="preserve"><g id="drop_x5F_shadow" display="none"><image width="530" height="530" display="inline" opacity=".4" overflow="visible" transform="matrix(1 0 0 1 35 45)" xlink:href="464129869F9B838.png"/><g display="inline"><circle cx="300" cy="300" r="250" fill="#FFF"/></g></g><g><linearGradient id="SVGID_1_" x1="178.898" x2="421.1" y1="90.429" y2="509.935" gradientUnits="userSpaceOnUse"><stop offset="0" style="stop-color:#ceb1e9"/><stop offset=".041" style="stop-color:#c5aadf"/><stop offset=".166" style="stop-color:#ae97c5"/><stop offset=".304" style="stop-color:#9d89b2"/><stop offset=".463" style="stop-color:#907fa4"/><stop offset=".658" style="stop-color:#89799b"/><stop offset="1" style="stop-color:#877799"/></linearGradient><path fill="url(#SVGID_1_)" d="M542.163,300.183c0,133.744-108.421,242.158-242.162,242.158 c-133.744,0-242.165-108.414-242.165-242.158c0-133.738,108.421-242.162,242.165-242.162 C433.742,58.021,542.163,166.445,542.163,300.183z"/><linearGradient id="SVGID_2_" x1="271.929" x2="503.812" y1="297.697" y2="431.575" gradientUnits="userSpaceOnUse"><stop offset="0" style="stop-color:#554a60"/><stop offset=".266" style="stop-color:#584d64"/><stop offset=".53" style="stop-color:#635770"/><stop offset=".792" style="stop-color:#746684"/><stop offset="1" style="stop-color:#877799"/></linearGradient><path fill="url(#SVGID_2_)" d="M322.75,279.393L201.484,422.588l-44.018,73.364c39.991,29.165,89.247,46.389,142.534,46.389 c133.741,0,242.162-108.414,242.162-242.158c0-50.79-15.649-97.921-42.372-136.856l-6.755-2.618L322.75,279.393z"/><g><path fill="#FFF" d="M413.554,77.346C377.186,58.799,338.42,49.86,300.217,49.86c-0.006,0-0.008,0-0.013,0 c-90.973,0-178.703,50.006-222.866,136.605C14.623,309.44,63.472,460.05,186.446,522.764 c36.372,18.549,75.143,27.376,113.352,27.376c90.973,0,178.701-49.824,222.866-136.427 C585.377,290.743,536.528,140.061,413.554,77.346z M122.902,449.205c-19.251-22.899-33.716-49.006-42.996-77.601 c-9.278-28.594-12.901-58.221-10.764-88.06c2.21-30.882,10.529-60.654,24.725-88.49c19.754-38.733,49.8-71.125,86.895-93.373 c36.108-21.657,77.412-33.267,119.443-33.267h0.013c36.678,0,71.975,8.675,104.907,25.47 c20.561,10.487,39.14,23.762,55.479,39.532c-31.34,16.075-61.417,34.267-90.106,54.54l-25.394-21.008l-3.252-0.301 c-26.411-2.461-71.879,32.767-102.793,63.683c-38.37,38.364-64.769,78.792-70.617,108.133l-0.86,4.304l21.648,26.463 c-20.673,29.258-39.19,59.957-55.497,91.967C129.997,457.335,126.38,453.343,122.902,449.205z M506.135,405.293 c-19.754,38.734-49.802,70.974-86.895,93.223c-36.108,21.656-77.411,33.106-119.442,33.106c-34.859,0-68.463-7.701-99.975-22.874 c19.869-40.852,43.709-79.384,71.354-115.286c12.664,6.024,22.225,10.535,25.659,12.153c0.83,0.39,6.338,3.209,6.397,3.237 l2.78-3.194L406.656,305.02l2.901-2.901l-1.749-3.706c-0.154-0.33-5.611-11.909-13.358-28.289 c35.487-27.356,73.546-50.988,113.874-70.747c4.553,9.454,8.491,19.24,11.769,29.34c9.279,28.594,12.901,58.241,10.767,88.08 C528.648,347.677,520.331,377.459,506.135,405.293z"/></g><path fill="#76667F" d="M341.309,172.456c-0.7-0.066-1.425-0.097-2.168-0.097c-42.158,0-152.259,103.402-164.987,167.25 c39.719,20.545,127.733,61.931,127.733,61.931l100.642-100.638C402.528,300.901,358.158,206.711,341.309,172.456z M300.354,392.729 c-17.799-8.399-82.331-38.952-117.744-57.003c7.555-26.938,33.109-64.013,68.132-98.471c32.973-32.442,67.678-55.522,86.02-57.45 c15.512,31.777,48.2,101,56.956,119.563L300.354,392.729z M323.263,215.762L217.457,321.569l-4.124-4.12l105.812-105.81 L323.263,215.762z M359.083,297.589l-59.799,59.8l-4.121-4.124l59.798-59.799L359.083,297.589z M340.259,257.592l-80.973,80.971 l-4.12-4.128l80.969-80.966L340.259,257.592z"/></g></svg>