<svg viewBox="0 0 24 24" xmlns="http://www.w3.org/2000/svg">
  <g stroke-linecap="round" stroke-width="1.5" stroke="#323232" fill="none" stroke-linejoin="round">
    <path d="M18.364 5.63604c3.51472 3.51472 3.51472 9.2132 0 12.7279-3.51472 3.51472-9.2132 3.51472-12.7279 0-3.51472-3.51472-3.51472-9.2132 0-12.7279 3.51472-3.51472 9.2132-3.51472 12.7279 0"/>
    <path d="M12.715 16.632l.982-.264c.183-.049.32-.201.351-.388l.215-1.32c.033-.204.194-.365.398-.398l1.319-.215c.187-.03.339-.168.388-.351l.263-.982c.049-.183-.014-.378-.161-.498l-1.036-.846c-.161-.131-.219-.35-.146-.544l.476-1.253c.067-.177.024-.378-.11-.512l-.718-.718c-.134-.134-.334-.177-.512-.11l-1.251.477c-.194.074-.413.015-.544-.146l-.846-1.036c-.12-.147-.315-.21-.498-.16l-.982.264c-.183.049-.32.201-.351.388l-.215 1.32c-.033.204-.193.364-.398.397l-1.319.215c-.187.03-.339.168-.388.351l-.263.982c-.049.183.014.378.16.498l1.034.846c.16.131.219.35.145.544l-.476 1.253c-.067.177-.024.378.11.512l.718.718c.134.134.334.177.511.11l1.254-.475c.194-.073.413-.015.544.146l.846 1.036c.122.145.317.208.5.159z"/>
  </g>
  <path fill="none" d="M0 0h24v24H0V0z"/>
</svg>