<svg xmlns="http://www.w3.org/2000/svg" viewBox="0 0 3333 2790" shape-rendering="geometricPrecision" text-rendering="geometricPrecision" image-rendering="optimizeQuality" fill-rule="evenodd" clip-rule="evenodd" fill="#396bf5"><path d="M3333 966v778c0 71-13 137-38 198s-63 117-113 167c-22 22-45 41-69 58-25 18-50 32-75 45-1 1-3 1-4 2-33 15-67 27-103 34-37 8-75 12-114 12h-244c5 16 10 31 15 47 15 43 32 86 51 128v1c17 39 40 77 68 114 29 38 65 76 107 113 30 27 33 73 6 103-19 21-47 29-73 22-90-23-176-53-256-88s-156-76-228-123c-71-46-137-99-199-156-52-49-101-102-146-160h-257c-48 0-94-6-139-18-44-12-86-30-126-54-34-21-45-66-25-100 21-34 66-45 100-25 27 17 57 29 89 38 31 9 65 13 101 13h292c22 0 44 10 58 29 46 61 97 118 152 170s115 98 179 140c61 40 127 76 197 107-13-22-25-45-35-68-20-45-38-91-55-140-16-46-30-94-43-142-3-8-4-16-4-25 0-40 33-73 73-73h341c29 0 57-3 84-9 25-5 49-13 71-24 1-1 2-1 3-2 19-9 37-20 54-31 17-12 34-27 50-43 36-36 63-76 81-119s27-91 27-143V964c0-52-9-100-27-143s-45-83-81-119-76-63-119-81-91-27-143-27h-361c-40 0-73-33-73-73s33-73 73-73h361c70 0 136 13 198 38 61 25 117 63 167 113s88 106 113 167 38 127 38 198zM1313 146H516c-52 0-100 9-143 27s-83 45-119 81-63 76-81 119-27 91-27 143v778c0 52 9 100 27 143s45 83 81 119c37 36 77 64 120 81 43 18 90 27 142 27h342c40 0 73 33 73 73 0 9-2 17-4 25-13 48-27 96-43 142-17 49-35 95-55 140-10 23-22 45-35 68 70-31 136-67 197-107 64-42 124-89 179-140 56-52 106-109 152-170 14-19 36-29 58-29h294c52 0 99-9 142-27s83-45 120-81c36-36 63-76 81-119s27-91 27-143V518c0-52-9-100-27-143s-45-83-81-119-76-63-119-81-91-27-143-27h-361zM877 0h797c70 0 136 13 198 38 61 25 117 63 167 113s88 106 113 167 38 127 38 198v778c0 71-13 137-38 198s-63 117-113 167-106 87-167 113c-61 25-127 38-198 38h-258c-45 57-94 111-146 160-62 58-128 110-199 156-71 47-147 88-228 123-80 35-166 64-256 88-26 7-54-1-73-22-27-30-24-76 6-103 42-37 78-75 107-113 28-37 51-75 68-114v-1c19-42 36-85 51-128 5-15 10-31 15-47H515c-70 0-136-13-198-38-61-25-117-63-167-113s-88-106-113-167c-25-62-38-128-38-198V515c0-70 13-136 38-198 25-61 63-117 113-167S256 62 317 37 444-1 515-1h361z" fill-rule="nonzero"/></svg>