<?xml version="1.0" encoding="UTF-8" standalone="no"?>
<svg
   xmlns:dc="http://purl.org/dc/elements/1.1/"
   xmlns:cc="http://creativecommons.org/ns#"
   xmlns:rdf="http://www.w3.org/1999/02/22-rdf-syntax-ns#"
   xmlns:svg="http://www.w3.org/2000/svg"
   xmlns="http://www.w3.org/2000/svg"
   viewBox="0 0 200 228"
   height="228"
   width="200"
   xml:space="preserve"
   id="svg2"
   version="1.1"><metadata
     id="metadata8"><rdf:RDF><cc:Work
         rdf:about=""><dc:format>image/svg+xml</dc:format><dc:type
           rdf:resource="http://purl.org/dc/dcmitype/StillImage" /></cc:Work></rdf:RDF></metadata><defs
     id="defs6"><clipPath
       id="clipPath20"
       clipPathUnits="userSpaceOnUse"><path
         id="path18"
         d="m 1226.38,862.832 153.98,152.958 c 159.52,158.46 159.52,416.53 0,574.98 -159.51,158.45 -419.317,158.45 -578.833,0 l -56.066,-55.7 C 671.23,1640.97 548.828,1710 409.055,1710 183.207,1710 0,1528.02 0,1303.68 V 422.777 C 0,198.434 183.207,16.4531 409.055,16.4531 c 139.773,0 262.175,69.0274 336.406,174.9219 l 56.066,-55.691 c 159.516,-158.4535 419.323,-158.4535 578.833,0 159.52,158.449 159.52,416.523 0,574.972 z" /></clipPath><clipPath
       id="clipPath26"
       clipPathUnits="userSpaceOnUse"><path
         id="path24"
         d="M 0,0 H 1500 V 1710 H 0 Z" /></clipPath></defs><g
     transform="matrix(1.3333333,0,0,-1.3333333,0,228)"
     id="g10"><g
       transform="scale(0.1)"
       id="g12"><g
         id="g14"><g
           clip-path="url(#clipPath20)"
           id="g16"><g
             clip-path="url(#clipPath26)"
             id="g22"><path
               id="path28"
               style="fill: white;fill-opacity:1;fill-rule:nonzero;stroke:none"
               d="M 0,0 H 1650 V 1860 H 0 Z" /></g></g></g></g></g></svg>