<svg xmlns="http://www.w3.org/2000/svg" viewBox="0 0 2560 3333" shape-rendering="geometricPrecision" text-rendering="geometricPrecision" image-rendering="optimizeQuality" fill-rule="evenodd" clip-rule="evenodd" fill="#396bf5"><path d="M237 1240h78v-237c0-275 108-525 282-707C772 113 1014 0 1280 0s508 113 683 296c174 182 282 432 282 707v237h78c65 0 124 27 167 69 43 43 69 102 69 167v1620c0 65-27 124-69 167-43 43-102 69-167 69H236c-65 0-124-27-167-69-43-43-69-102-69-167V1476c0-65 27-124 69-167 43-43 102-69 167-69zm957 1128l-114 298h400l-105-302c67-34 113-104 113-185 0-115-93-207-207-207-115 0-207 93-207 207 0 84 50 156 121 189zM482 1240h1597v-237c0-231-90-440-236-592-145-151-344-245-563-245s-418 94-563 245c-145 152-236 361-236 592v237zm1842 166H237c-19 0-37 8-49 21-13 13-21 30-21 49v1620c0 19 8 37 21 49 13 13 30 21 49 21h2087c19 0 37-8 49-21 13-13 21-30 21-49V1476c0-19-8-37-21-49-13-13-30-21-49-21z" fill-rule="nonzero"/></svg>