<?xml version="1.0" encoding="utf-8"?>
<!-- Generator: Adobe Illustrator 16.0.3, SVG Export Plug-In . SVG Version: 6.00 Build 0)  -->
<!DOCTYPE svg PUBLIC "-//W3C//DTD SVG 1.1//EN" "http://www.w3.org/Graphics/SVG/1.1/DTD/svg11.dtd">
<svg version="1.1" xmlns="http://www.w3.org/2000/svg" xmlns:xlink="http://www.w3.org/1999/xlink" x="0px" y="0px" width="829px"
	 height="283.465px" viewBox="0 0 829 283.465" enable-background="new 0 0 829 283.465" xml:space="preserve">
<g id="White_Background">
</g>
<g id="Main">
	<linearGradient id="SVGID_1_" gradientUnits="userSpaceOnUse" x1="90.6387" y1="71.9136" x2="90.6387" y2="185.9565">
		<stop  offset="0" style="stop-color:#D9D9D9"/>
		<stop  offset="1" style="stop-color:#C6C6C5"/>
	</linearGradient>
	<path opacity="0.8" fill-rule="evenodd" clip-rule="evenodd" fill="url(#SVGID_1_)" d="M116.195,89.078l-10.001-17.164
		c-24.583,14.355-41.111,41-41.111,71.518c0,15.551,4.296,30.094,11.754,42.525l17.046-10.207c-5.667-9.445-8.933-20.5-8.933-32.318
		C84.95,120.236,97.512,99.988,116.195,89.078z"/>
	<linearGradient id="SVGID_2_" gradientUnits="userSpaceOnUse" x1="168.501" y1="160.6343" x2="168.501" y2="226.229">
		<stop  offset="0" style="stop-color:#D9D9D9"/>
		<stop  offset="1" style="stop-color:#C6C6C5"/>
	</linearGradient>
	<path opacity="0.8" fill-rule="evenodd" clip-rule="evenodd" fill="url(#SVGID_2_)" d="M208.36,160.634
		c-8.904,31.428-40.693,51.115-73.195,44.418c-5.87-1.211-11.368-3.217-16.431-5.857l-9.199,17.607
		c6.662,3.477,13.896,6.117,21.62,7.707c42.764,8.813,84.598-17.092,96.312-58.443L208.36,160.634z"/>
	<linearGradient id="SVGID_3_" gradientUnits="userSpaceOnUse" x1="128.6436" y1="107.9019" x2="128.6436" y2="195.0073">
		<stop  offset="0" style="stop-color:#D9D9D9"/>
		<stop  offset="1" style="stop-color:#C6C6C5"/>
	</linearGradient>
	<path opacity="0.6" fill-rule="evenodd" clip-rule="evenodd" fill="url(#SVGID_3_)" d="M157.846,181.341
		c-3.188,0.838-6.533,1.287-9.983,1.287c-21.647,0-39.195-17.551-39.195-39.197c0-10.469,4.112-19.971,10.799-27.002l-8.968-8.527
		c-8.799,9.251-14.21,21.755-14.21,35.529c0,28.482,23.089,51.576,51.574,51.576c4.54,0,8.941-0.592,13.136-1.695L157.846,181.341z"
		/>
	<linearGradient id="SVGID_4_" gradientUnits="userSpaceOnUse" x1="147.8633" y1="15.8726" x2="147.8633" y2="270.9917">
		<stop  offset="0" style="stop-color:#D9D9D9"/>
		<stop  offset="1" style="stop-color:#C6C6C5"/>
	</linearGradient>
	<path fill-rule="evenodd" clip-rule="evenodd" fill="url(#SVGID_4_)" d="M147.863,240.376c-53.539,0-96.943-43.404-96.943-96.945
		s43.404-96.945,96.943-96.945c53.542,0,96.945,43.404,96.945,96.945S201.405,240.376,147.863,240.376L147.863,240.376z
		 M275.422,143.431c0-70.449-57.111-127.559-127.56-127.559c-70.448,0-127.559,57.109-127.559,127.559
		c0,70.447,57.111,127.561,127.559,127.561C218.311,270.992,275.422,213.878,275.422,143.431z"/>
	<g>
		<g>
			<path d="M351.27,183.237c6.825,4.2,16.8,7.7,27.3,7.7c15.576,0,24.676-8.226,24.676-20.125c0-11.025-6.3-17.325-22.226-23.45
				c-19.25-6.825-31.15-16.8-31.15-33.426c0-18.375,15.225-32.025,38.15-32.025c12.075,0,20.826,2.8,26.076,5.775l-4.2,12.425
				c-3.85-2.1-11.725-5.6-22.4-5.6c-16.1,0-22.226,9.625-22.226,17.675c0,11.025,7.175,16.45,23.451,22.75
				c19.95,7.7,30.101,17.325,30.101,34.65c0,18.201-13.475,33.951-41.301,33.951c-11.375,0-23.8-3.326-30.101-7.525L351.27,183.237z
				"/>
			<path d="M486.544,201.788l-1.225-10.676h-0.525c-4.725,6.65-13.825,12.6-25.9,12.6c-17.15,0-25.9-12.074-25.9-24.325
				c0-20.476,18.2-31.676,50.926-31.5v-1.75c0-7-1.925-19.601-19.25-19.601c-7.875,0-16.101,2.45-22.05,6.3l-3.5-10.15
				c7-4.55,17.15-7.525,27.826-7.525c25.9,0,32.201,17.675,32.201,34.65v31.676c0,7.35,0.35,14.525,1.4,20.301H486.544z
				 M484.269,158.562c-16.8-0.35-35.875,2.625-35.875,19.075c0,9.975,6.65,14.7,14.525,14.7c11.025,0,18.025-7,20.475-14.175
				c0.525-1.575,0.875-3.325,0.875-4.9V158.562z"/>
			<path d="M525.567,201.788v-72.977h-11.9v-11.726h11.9v-4.55c0-22.4,13.125-36.926,36.926-36.926c7.875,0,17.15,2.45,21.525,5.6
				l-4.375,11.725c-3.675-2.625-10.325-4.9-17.851-4.9c-16.275,0-21,11.375-21,24.851v4.2h49.176v84.702h-15.226v-72.977h-33.95
				v72.977H525.567z"/>
			<path d="M615.516,140.011c0-8.75-0.175-15.925-0.7-22.926h13.65l0.875,14h0.35c4.2-8.05,14-15.925,28-15.925
				c11.725,0,29.925,7,29.925,36.051v50.576h-15.4v-48.826c0-13.65-5.075-25.025-19.6-25.025c-10.15,0-18.025,7.175-20.65,15.75
				c-0.7,1.925-1.05,4.55-1.05,7.175v50.926h-15.4V140.011z"/>
			<path d="M785.616,117.085c-0.35,6.125-0.7,12.95-0.7,23.275v49.177c0,19.424-3.85,31.324-12.075,38.676
				c-8.225,7.699-20.125,10.148-30.8,10.148c-10.15,0-21.351-2.449-28.175-7l3.85-11.725c5.6,3.5,14.351,6.65,24.851,6.65
				c15.75,0,27.301-8.225,27.301-29.576v-9.449h-0.35c-4.725,7.875-13.825,14.176-26.951,14.176c-21,0-36.051-17.852-36.051-41.302
				c0-28.7,18.726-44.976,38.151-44.976c14.7,0,22.75,7.7,26.425,14.7h0.35l0.7-12.775H785.616z M769.69,150.511
				c0-2.625-0.175-4.9-0.875-7c-2.8-8.925-10.325-16.275-21.525-16.275c-14.7,0-25.2,12.425-25.2,32.025
				c0,16.625,8.4,30.45,25.025,30.45c9.45,0,18.025-5.949,21.35-15.75c0.875-2.625,1.225-5.6,1.225-8.225V150.511z"/>
		</g>
		<g>
			<linearGradient id="SVGID_5_" gradientUnits="userSpaceOnUse" x1="566.5178" y1="75.6099" x2="566.5178" y2="238.3618">
				<stop  offset="0" style="stop-color:#D9D9D9"/>
				<stop  offset="1" style="stop-color:#C6C6C5"/>
			</linearGradient>
			<path fill="url(#SVGID_5_)" d="M351.27,183.237c6.825,4.2,16.8,7.7,27.3,7.7c15.576,0,24.676-8.226,24.676-20.125
				c0-11.025-6.3-17.325-22.226-23.45c-19.25-6.825-31.15-16.8-31.15-33.426c0-18.375,15.225-32.025,38.15-32.025
				c12.075,0,20.826,2.8,26.076,5.775l-4.2,12.425c-3.85-2.1-11.725-5.6-22.4-5.6c-16.1,0-22.226,9.625-22.226,17.675
				c0,11.025,7.175,16.45,23.451,22.75c19.95,7.7,30.101,17.325,30.101,34.65c0,18.201-13.475,33.951-41.301,33.951
				c-11.375,0-23.8-3.326-30.101-7.525L351.27,183.237z"/>
			<linearGradient id="SVGID_6_" gradientUnits="userSpaceOnUse" x1="566.5178" y1="75.6099" x2="566.5178" y2="238.3618">
				<stop  offset="0" style="stop-color:#D9D9D9"/>
				<stop  offset="1" style="stop-color:#C6C6C5"/>
			</linearGradient>
			<path fill="url(#SVGID_6_)" d="M486.544,201.788l-1.225-10.676h-0.525c-4.725,6.65-13.825,12.6-25.9,12.6
				c-17.15,0-25.9-12.074-25.9-24.325c0-20.476,18.2-31.676,50.926-31.5v-1.75c0-7-1.925-19.601-19.25-19.601
				c-7.875,0-16.101,2.45-22.05,6.3l-3.5-10.15c7-4.55,17.15-7.525,27.826-7.525c25.9,0,32.201,17.675,32.201,34.65v31.676
				c0,7.35,0.35,14.525,1.4,20.301H486.544z M484.269,158.562c-16.8-0.35-35.875,2.625-35.875,19.075c0,9.975,6.65,14.7,14.525,14.7
				c11.025,0,18.025-7,20.475-14.175c0.525-1.575,0.875-3.325,0.875-4.9V158.562z"/>
			<linearGradient id="SVGID_7_" gradientUnits="userSpaceOnUse" x1="566.5178" y1="75.6099" x2="566.5178" y2="238.3618">
				<stop  offset="0" style="stop-color:#D9D9D9"/>
				<stop  offset="1" style="stop-color:#C6C6C5"/>
			</linearGradient>
			<path fill="url(#SVGID_7_)" d="M525.567,201.788v-72.977h-11.9v-11.726h11.9v-4.55c0-22.4,13.125-36.926,36.926-36.926
				c7.875,0,17.15,2.45,21.525,5.6l-4.375,11.725c-3.675-2.625-10.325-4.9-17.851-4.9c-16.275,0-21,11.375-21,24.851v4.2h49.176
				v84.702h-15.226v-72.977h-33.95v72.977H525.567z"/>
			<linearGradient id="SVGID_8_" gradientUnits="userSpaceOnUse" x1="566.5178" y1="75.6099" x2="566.5178" y2="238.3618">
				<stop  offset="0" style="stop-color:#D9D9D9"/>
				<stop  offset="1" style="stop-color:#C6C6C5"/>
			</linearGradient>
			<path fill="url(#SVGID_8_)" d="M615.516,140.011c0-8.75-0.175-15.925-0.7-22.926h13.65l0.875,14h0.35
				c4.2-8.05,14-15.925,28-15.925c11.725,0,29.925,7,29.925,36.051v50.576h-15.4v-48.826c0-13.65-5.075-25.025-19.6-25.025
				c-10.15,0-18.025,7.175-20.65,15.75c-0.7,1.925-1.05,4.55-1.05,7.175v50.926h-15.4V140.011z"/>
			<linearGradient id="SVGID_9_" gradientUnits="userSpaceOnUse" x1="566.5178" y1="75.6099" x2="566.5178" y2="238.3618">
				<stop  offset="0" style="stop-color:#D9D9D9"/>
				<stop  offset="1" style="stop-color:#C6C6C5"/>
			</linearGradient>
			<path fill="url(#SVGID_9_)" d="M785.616,117.085c-0.35,6.125-0.7,12.95-0.7,23.275v49.177c0,19.424-3.85,31.324-12.075,38.676
				c-8.225,7.699-20.125,10.148-30.8,10.148c-10.15,0-21.351-2.449-28.175-7l3.85-11.725c5.6,3.5,14.351,6.65,24.851,6.65
				c15.75,0,27.301-8.225,27.301-29.576v-9.449h-0.35c-4.725,7.875-13.825,14.176-26.951,14.176c-21,0-36.051-17.852-36.051-41.302
				c0-28.7,18.726-44.976,38.151-44.976c14.7,0,22.75,7.7,26.425,14.7h0.35l0.7-12.775H785.616z M769.69,150.511
				c0-2.625-0.175-4.9-0.875-7c-2.8-8.925-10.325-16.275-21.525-16.275c-14.7,0-25.2,12.425-25.2,32.025
				c0,16.625,8.4,30.45,25.025,30.45c9.45,0,18.025-5.949,21.35-15.75c0.875-2.625,1.225-5.6,1.225-8.225V150.511z"/>
		</g>
	</g>
</g>
<g id="Helpers" display="none">
</g>
</svg>
